<svg xmlns="http://www.w3.org/2000/svg" viewBox="0 0 355.74 229.29"><g id="レイヤー_2" data-name="レイヤー 2"><g id="logo"><path d="M336.67,190.09a14.1,14.1,0,0,0-11-3.47,14.44,14.44,0,0,0-9.45,4.82,13.82,13.82,0,0,0-3.47,10.8,13.32,13.32,0,0,0,4.82,9.44,14.7,14.7,0,0,0,11,3.67,13.5,13.5,0,0,0,9.64-4.82,13.78,13.78,0,0,0,3.47-10.8A13.28,13.28,0,0,0,336.67,190.09Zm-4,11.48a5.28,5.28,0,0,1-2.13,3.76,5.49,5.49,0,0,1-4,1.12,5.14,5.14,0,0,1-3.77-2,5.32,5.32,0,0,1-1.12-4,5.06,5.06,0,0,1,2.14-3.77,5.62,5.62,0,0,1,4-1,5.13,5.13,0,0,1,3.87,2.14A5.24,5.24,0,0,1,332.71,201.57Z" style="fill:#fff"/><path d="M355.74,27.76V18.58H275.06V0h-9.37V18.58H194.37v0H185V45.71H172.59V17.53H133.77V0h-9.39V17.53l-33.12,0v0l-7.46,0H47.23c1.84-5.05,3.56-10.16,5.16-15.27L43,0C33.61,31.94,18,62.83,0,83.28a89.1,89.1,0,0,1,5.85,9.4A225.11,225.11,0,0,0,28,59.91V183.83L9.58,197.93V173.51H.17v55.74H9.58v-18.1l11.65-8.48,18.93,26.58H51.08L28.27,197.07c11.71-9.3,20.89-17,31.15-25.88a77.43,77.43,0,0,0,11.84-12.6A55.78,55.78,0,0,0,90.56,174H72.28v55.25H119v-7.57H81.69V205.09h33.83v-8.56H81.69V181.94h45.7c3.62.12,7.35.12,11.21,0h5.77v47.31h9.51V184.46l28.8,44.79h11.69v-57.5h0v-88h71.32v20h-52.6v8.14h52.6v41.88h0v17.76L255.85,182l-31.27-53.12H214l35.59,59.9-34.8,40.43h11.79l39.12-45.1v31.49h0v13.62l9.4,0V215.64h0V180.48c15-3.39,29.56-11.6,38.28-20.75l12.92,13A27.61,27.61,0,0,0,306.83,181q-8,8-8,20.13a27.55,27.55,0,0,0,9.29,21.16q7.49,7,19.1,7,13.93,0,22.2-10.07a27.42,27.42,0,0,0,6.19-18.06,28.19,28.19,0,0,0-8-20.39,27.61,27.61,0,0,0-2.6-2.27l.06-.06-25.86-26.09c8.41-12.6,14.12-29.29,14.12-40.43V83.7h22.41V75.14H333.33V47.8H275.06v-20Zm-222-1.88h29.64V45.71H133.77Zm0,28.39h29.64V74.52H133.77Zm0,28.81h38.82V54.27H185V102.7H133.77Zm0,28H185v20H133.77ZM75.29,54.27h49.09V74.52H65.89C69.07,67.88,72.24,61,75.29,54.27Zm49.09,28.81V102.7h-34q1.52-9.36,2.64-19.62Zm-35.45,28h35.45v20H84.2Q86.9,121.75,88.93,111.05Zm35.45-85.17V45.71H79.12c3.1-7,6-13.73,8.62-19.83Zm-87,150.76V41.33c2.5-5.26,4.84-10.72,7-16.28H78.33C70.61,43.21,61.88,63.24,51.66,83.69c0,31.5,7.54,54.46,13.77,65.62C58.36,160.25,48.26,167.91,37.36,176.64Zm34-36.89c-4.8-9.39-11.22-40.74-9.74-56H83.72C81,105.41,77.64,124.73,71.37,139.75Zm6.16,9.86c1.41-3.14,2.72-6.48,3.94-10h42.91v33.78C103.41,171.85,89.18,165.79,77.53,149.61Zm85.28,32.28H185v34.65ZM185,171.75v2c-14.71.1-43,.1-47.21.1-1.37,0-2.7,0-4,0v-34.2H185v32.11Zm90.06-88h48.67v20H275.06Zm-80.69-8.56V27.76h71.32v20h-52.6v8.35h52.6v19Zm80.73,95.35V153.76h0V121.1l31.13,31.41C297.58,161.72,288.22,167.15,275.1,170.49Zm71.4,32.18a17.83,17.83,0,0,1-6.28,12.78,18.77,18.77,0,0,1-14.57,4.71,18.06,18.06,0,0,1-13-6.28,18.77,18.77,0,0,1-4.71-14.57,18.46,18.46,0,0,1,6.28-12.78,20,20,0,0,1,14.57-4.7,18.67,18.67,0,0,1,13.45,6.95Q347,194.38,346.5,202.67Zm-34.32-57.46-33-33.3,44.78,0C324.1,119.54,319.3,134.68,312.18,145.21Zm11.55-89.06v19H275.06v-19Z" style="fill:#fff"/></g></g></svg>